:SAMPLES-PER-SECOND 30
:FULLY-SPECIFIED
:DEGREES
116
root  -21.2383 40.1848 -28.2406 -0.772393 -1.25252 0.61872
RightUpLeg  13.8189 -14.4685 -20.5243
RightLeg  -0.263374 -36.0572 5.50317
RightFoot  3.86069 -1.36385 10.4519
RightToes  0.00048216 0.542163 -0.142577
Spine  17.7039 0.249053 8.94711
Spine1  4.13823 4.62304 -13.3223
HEad  -25.2354 42.4076 -33.0761
LeftShoulder1  8.78272 -13.3133 -45.5307
LeftArm  -17.5384 20.6158 -23.1325
LeftForeArm  90.354 -79.1886 -101.508
LeftHand  -0.25398 0.0180481 5.50724
RightShoulder  4.68334 8.85187 31.962
RightArm  -13.3269 -28.9807 28.9052
RightForeArm  56.4877 76.2954 116.555
RightHand  1.09671 -14.7182 -14.3314
LeftUpLeg  -16.7422 32.6426 2.66022
LeftLeg  17.5479 21.1888 6.28876
LeftFoot  -4.88797 -0.0807714 2.01222
LeftToes  1.06246e-005 4.65856e-005 -8.18501e-006
117
root  -19.8437 39.8332 -27.4147 -0.864864 4.5036 2.31599
RightUpLeg  16.5483 -15.4595 -24.6651
RightLeg  2.20631 -39.1041 3.56784
RightFoot  1.97164 -1.13542 9.71615
RightToes  0.00048216 0.542163 -0.142577
Spine  16.6268 0.0951837 7.93601
Spine1  4.67234 4.49773 -13.9907
HEad  -22.9091 40.0423 -29.9672
LeftShoulder1  8.71926 -13.303 -45.2181
LeftArm  -15.8589 20.5922 -22.7663
LeftForeArm  91.8861 -79.1111 -103.211
LeftHand  -0.25398 0.0180481 5.50724
RightShoulder  4.64937 8.83784 31.7287
RightArm  -13.8943 -31.4621 28.9959
RightForeArm  59.2401 75.7805 120.353
RightHand  1.20386 -15.3393 -14.6934
LeftUpLeg  -16.8528 43.0371 -1.46413
LeftLeg  19.2668 16.2235 5.58595
LeftFoot  -4.3767 0.0361185 -0.220231
LeftToes  1.06246e-005 4.65856e-005 -8.18501e-006
118
root  -18.3819 39.4078 -26.6651 -1.18777 11.8425 3.88191
RightUpLeg  18.2029 -17.0579 -27.9378
RightLeg  9.56156 -37.327 -2.08371
RightFoot  -3.758 -0.396347 5.29113
RightToes  0.00048216 0.542163 -0.142577
Spine  16.6514 -0.625675 7.06977
Spine1  4.77903 3.651 -13.7056
HEad  -21.0836 36.6921 -27.5529
LeftShoulder1  8.7021 -13.3469 -45.003
LeftArm  -13.6257 19.6843 -22.3163
LeftForeArm  94.0723 -78.9962 -105.537
LeftHand  -0.25398 0.0180481 5.50724
RightShoulder  4.59953 8.81663 31.3866
RightArm  -14.2334 -34.3033 28.3466
RightForeArm  62.984 74.8867 125.666
RightHand  1.28627 -15.9994 -14.6911
LeftUpLeg  -17.1678 45.6488 -5.54868
LeftLeg  22.5054 9.41061 4.6871
LeftFoot  -6.18013 0.00271864 0.98947
LeftToes  1.06246e-005 4.65856e-005 -8.18501e-006
119
root  -17.0325 38.9915 -26.091 -1.93152 20.0748 5.23916
RightUpLeg  18.8694 -19.4887 -29.2381
RightLeg  18.1858 -26.4482 -7.79676
RightFoot  -10.2624 -0.0645017 0.598757
RightToes  0.00048216 0.542163 -0.142577
Spine  17.7378 -1.54613 6.00628
Spine1  5.36861 2.43692 -12.5452
HEad  -20.3408 32.3271 -26.6326
LeftShoulder1  8.78986 -13.4771 -45.1123
LeftArm  -11.4135 17.2336 -22.0761
LeftForeArm  92.1876 -79.0977 -103.495
LeftHand  -0.25398 0.0180481 5.50724
RightShoulder  4.54226 8.74845 31.1249
RightArm  -14.7445 -36.4127 27.4251
RightForeArm  65.0882 74.0175 129.764
RightHand  1.21939 -14.9882 -15.3863
LeftUpLeg  -15.5785 38.6927 -7.64076
LeftLeg  26.2006 7.96737 4.6085
LeftFoot  -9.88555 0.00733184 4.12024
LeftToes  1.06246e-005 4.65856e-005 -8.18501e-006
120
root  -15.877 38.6728 -25.5755 -2.63177 26.7343 6.36313
RightUpLeg  16.2784 -14.291 -25.7169
RightLeg  27.3158 -15.7257 -8.98398
RightFoot  -14.4045 -0.117122 -1.05915
RightToes  0.00048216 0.542163 -0.142577
Spine  18.6194 -1.66301 4.70664
Spine1  6.85096 1.91185 -11.2583
HEad  -19.2442 28.1393 -25.7148
LeftShoulder1  8.97604 -13.678 -45.5461
LeftArm  -9.56232 14.1027 -21.9921
LeftForeArm  84.7105 -79.3493 -95.7478
LeftHand  -0.25398 0.0180481 5.50724
RightShoulder  4.52192 8.6922 31.1292
RightArm  -15.4999 -36.9526 26.668
RightForeArm  63.9216 73.9691 129.836
RightHand  1.06282 -13.396 -16.075
LeftUpLeg  -13.2326 31.649 -9.11814
LeftLeg  28.7998 8.9803 5.6582
LeftFoot  -13.3313 0.1684 5.42239
LeftToes  1.06246e-005 4.65856e-005 -8.18501e-006
121
root  -14.7991 38.5493 -24.9545 -2.69848 30.7559 7.1929
RightUpLeg  10.6481 -6.1734 -20.4417
RightLeg  36.9577 -8.60077 -7.22006
RightFoot  -14.9058 -0.111293 -0.280118
RightToes  0.00048216 0.542163 -0.142577
Spine  18.3154 -0.994451 3.34674
Spine1  8.37938 2.12033 -10.4078
HEad  -16.6315 25.5525 -23.3955
LeftShoulder1  9.09164 -13.7742 -45.888
LeftArm  -8.46301 12.2137 -21.8252
LeftForeArm  76.5864 -79.3958 -87.6406
LeftHand  -0.25398 0.0180481 5.50724
RightShoulder  4.59162 8.75762 31.502
RightArm  -15.757 -35.7967 26.0521
RightForeArm  59.6876 74.8427 125.531
RightHand  1.01998 -13.2666 -15.7487
LeftUpLeg  -10.5426 28.1032 -10.0375
LeftLeg  29.4754 9.72446 6.24927
LeftFoot  -15.3744 0.259055 4.7305
LeftToes  1.06246e-005 4.65856e-005 -8.18501e-006
122
root  -13.6519 38.6677 -24.2365 -2.59871 33.8028 7.30714
RightUpLeg  4.46507 0.144088 -15.6449
RightLeg  45.067 -6.98647 -7.83135
RightFoot  -14.1364 -0.0744365 0.849423
RightToes  0.00048216 0.542163 -0.142577
Spine  17.392 -0.745835 2.67394
Spine1  9.06042 2.04818 -9.89168
HEad  -13.0744 24.5673 -20.3832
LeftShoulder1  9.03177 -13.6736 -45.8508
LeftArm  -8.43741 12.3468 -21.5865
LeftForeArm  72.6229 -79.3318 -83.9563
LeftHand  -0.25398 0.0180481 5.50724
RightShoulder  4.70117 8.89972 31.96
RightArm  -15.1741 -33.7487 25.7059
RightForeArm  54.3419 75.7869 119.723
RightHand  1.1086 -14.2041 -15.2667
LeftUpLeg  -7.1702 26.3149 -10.1602
LeftLeg  27.946 8.9608 5.48445
LeftFoot  -16.3958 0.292825 4.38492
LeftToes  1.06246e-005 4.65856e-005 -8.18501e-006
123
root  -12.4385 38.9809 -23.5276 -3.20224 37.42 6.29681
RightUpLeg  -0.906855 4.14024 -11.3843
RightLeg  49.845 -8.39914 -10.8305
RightFoot  -13.8726 -0.0864192 0.329213
RightToes  0.00048216 0.542163 -0.142577
Spine  16.9665 -1.38504 3.30597
Spine1  8.97816 1.30388 -9.23187
HEad  -9.91845 23.928 -18.353
LeftShoulder1  8.90254 -13.5039 -45.6389
LeftArm  -9.17864 13.4504 -21.5441
LeftForeArm  71.5552 -79.3039 -83.0734
LeftHand  -0.25398 0.0180481 5.50724
RightShoulder  4.71996 8.93763 31.995
RightArm  -14.4505 -32.0122 25.9505
RightForeArm  51.0358 76.1911 116.534
RightHand  1.19522 -14.4954 -15.8737
LeftUpLeg  -2.87434 23.9043 -9.33003
LeftLeg  24.7614 7.84604 4.325
LeftFoot  -16.7328 0.329059 4.85229
LeftToes  1.06246e-005 4.65856e-005 -8.18501e-006
124
root  -11.2263 39.3113 -22.8431 -4.69171 41.2094 4.3428
RightUpLeg  -5.71318 5.9833 -7.9406
RightLeg  50.3544 -9.10754 -11.9175
RightFoot  -13.1789 -0.103113 -0.923419
RightToes  0.00048216 0.542163 -0.142577
Spine  17.1306 -2.11397 4.82003
Spine1  8.91703 0.561884 -8.48922
HEad  -7.76439 22.6733 -17.5761
LeftShoulder1  8.84114 -13.4339 -45.5067
LeftArm  -9.89115 14.2525 -21.8008
LeftForeArm  70.484 -79.2781 -81.986
LeftHand  -0.25398 0.0180481 5.50724
RightShoulder  4.62736 8.82069 31.6014
RightArm  -14.3374 -31.1895 26.5169
RightForeArm  50.8855 76.1757 116.613
RightHand  1.22163 -14.1458 -16.7808
LeftUpLeg  1.84955 20.5043 -7.72666
LeftLeg  21.1511 7.91133 3.41469
LeftFoot  -16.7433 0.34141 5.10025
LeftToes  1.06246e-005 4.65856e-005 -8.18501e-006
125
root  -10.009 39.5312 -22.1304 -6.27115 44.3037 2.14906
RightUpLeg  -10.3442 6.42266 -5.64048
RightLeg  46.7719 -8.40711 -9.79622
RightFoot  -10.7293 -0.075162 -0.492711
RightToes  0.00048216 0.542163 -0.142577
Spine  17.1086 -2.33175 6.32113
Spine1  9.06104 0.326151 -7.82
HEad  -6.20373 20.9004 -16.8942
LeftShoulder1  8.84624 -13.4638 -45.4506
LeftArm  -10.1276 14.5864 -22.1521
LeftForeArm  69.6142 -79.254 -81.1425
LeftHand  -0.25398 0.0180481 5.50724
RightShoulder  4.54807 8.72332 31.25
RightArm  -14.8215 -31.022 26.8127
RightForeArm  52.5949 76.0213 117.937
RightHand  1.24771 -14.45 -16.5833
LeftUpLeg  6.20236 14.9394 -6.20028
LeftLeg  17.7552 10.7761 2.04147
LeftFoot  -16.8789 0.344508 5.02359
LeftToes  1.06246e-005 4.65856e-005 -8.18501e-006
126
root  -8.75624 39.5818 -21.3742 -7.17737 47.2352 0.643708
RightUpLeg  -14.1894 5.37445 -4.54602
RightLeg  40.1621 -7.51585 -7.01653
RightFoot  -7.47616 -0.0812165 0.956222
RightToes  0.00048216 0.542163 -0.142577
Spine  16.717 -2.35983 6.87863
Spine1  9.11757 0.103075 -7.10025
HEad  -4.85126 19.1277 -15.6336
LeftShoulder1  8.84885 -13.4929 -45.3839
LeftArm  -10.1604 14.8561 -22.4442
LeftForeArm  70.6712 -79.2786 -82.379
LeftHand  -0.25398 0.0180481 5.50724
RightShoulder  4.5578 8.77109 31.1836
RightArm  -15.4724 -30.9977 26.7197
RightForeArm  54.9671 75.7915 119.752
RightHand  1.29943 -15.3069 -15.7928
LeftUpLeg  9.82226 8.91786 -5.85268
LeftLeg  14.902 13.8337 0.466601
LeftFoot  -17.4145 0.382903 5.23549
LeftToes  1.06246e-005 4.65856e-005 -8.18501e-006
127
root  -7.44211 39.4741 -20.5748 -7.46996 50.6277 0.0134289
RightUpLeg  -16.651 2.54149 -4.14562
RightLeg  31.2762 -6.53605 -4.53292
RightFoot  -5.0213 -0.112954 1.46313
RightToes  0.00048216 0.542163 -0.142577
Spine  16.1827 -2.56544 6.49863
Spine1  9.06922 -0.461864 -6.25755
HEad  -3.79742 17.4146 -14.1277
LeftShoulder1  8.83049 -13.4861 -45.3049
LeftArm  -10.4089 15.0669 -22.7404
LeftForeArm  73.7419 -79.3347 -85.5984
LeftHand  -0.25398 0.0180481 5.50724
RightShoulder  4.56958 8.80076 31.1899
RightArm  -16.137 -30.9106 26.6891
RightForeArm  57.6685 75.3878 122.476
RightHand  1.33498 -15.5655 -15.8063
LeftUpLeg  13.1014 5.43779 -6.18003
LeftLeg  12.9455 14.0781 -0.426298
LeftFoot  -18.2183 0.461912 5.85361
LeftToes  1.06246e-005 4.65856e-005 -8.18501e-006
128
root  -6.04742 39.2549 -19.7205 -7.65787 53.8886 -0.45507
RightUpLeg  -18.1051 -1.99345 -3.35295
RightLeg  20.8063 -4.32246 -2.08031
RightFoot  -3.24766 -0.171102 2.06308
RightToes  0.00048216 0.542163 -0.142577
Spine  15.3503 -2.76604 6.17972
Spine1  9.33406 -0.929066 -5.55666
HEad  -3.2279 15.5235 -12.7547
LeftShoulder1  8.81346 -13.4642 -45.2746
LeftArm  -10.9331 14.9271 -23.0655
LeftForeArm  77.3732 -79.3655 -89.2403
LeftHand  -0.25398 0.0180481 5.50724
RightShoulder  4.48103 8.60701 31.0509
RightArm  -16.9354 -30.7445 27.1128
RightForeArm  60.4211 74.8281 125.701
RightHand  1.35914 -15.2375 -16.5676
LeftUpLeg  16.4496 4.25349 -6.0169
LeftLeg  11.4941 12.538 -0.885502
LeftFoot  -19.2119 0.54952 6.30303
LeftToes  1.06246e-005 4.65856e-005 -8.18501e-006
129
root  -4.58896 38.929 -18.7981 -7.85453 56.4413 -0.949649
RightUpLeg  -18.8196 -6.01526 -2.46532
RightLeg  9.96455 -3.50217 0.375468
RightFoot  -2.33851 -0.374555 4.59422
RightToes  0.00048216 0.542163 -0.142577
Spine  14.2277 -2.73447 5.96865
Spine1  10.01 -1.08702 -4.94457
HEad  -3.09046 13.5924 -11.5584
LeftShoulder1  8.79984 -13.4178 -45.3306
LeftArm  -11.6299 14.4574 -23.2894
LeftForeArm  80.189 -79.3606 -92.0582
LeftHand  -0.25398 0.0180481 5.50724
RightShoulder  4.33943 8.28774 30.8504
RightArm  -17.7814 -30.2774 27.857
RightForeArm  62.4607 74.3283 128.206
RightHand  1.40947 -15.1909 -17.201
LeftUpLeg  19.8756 4.39789 -5.01588
LeftLeg  10.3059 9.92712 -1.48286
LeftFoot  -20.5807 0.600778 5.91325
LeftToes  1.06246e-005 4.65856e-005 -8.18501e-006
130
root  -3.08618 38.4807 -17.7915 -7.96494 58.8158 -0.867194
RightUpLeg  -18.1984 -5.09519 -3.54233
RightLeg  0.595553 -9.28578 3.74258
RightFoot  -3.1192 -0.54228 7.22317
RightToes  0.00048216 0.542163 -0.142577
Spine  13.6392 -2.67674 4.85073
Spine1  10.4506 -1.45561 -3.84897
HEad  -3.04484 12.0509 -10.6224
LeftShoulder1  8.7656 -13.3213 -45.4163
LeftArm  -12.3987 14.0259 -23.3362
LeftForeArm  81.2643 -79.344 -93.28
LeftHand  -0.25398 0.0180481 5.50724
RightShoulder  4.25197 8.0874 30.7304
RightArm  -18.2706 -29.2931 28.4964
RightForeArm  63.1351 74.0617 129.399
RightHand  1.50095 -15.4344 -17.8076
LeftUpLeg  23.3565 5.14967 -3.51365
LeftLeg  10.2362 6.05646 -2.18406
LeftFoot  -22.1025 0.586205 4.81112
LeftToes  1.06246e-005 4.65856e-005 -8.18501e-006
